# xmcd CD database file
#
# Track frame offsets:
#	150
#	22087
#	44750
#
# Disc length: 888 seconds
#
# Revision: 0
# Processed by: cddbd v1.5.1PL0 Copyright (c) Steve Scherf et al.
# Submitted via: CDex 1.51
#
DISCID=25037603
DTITLE=The Gospellers - PROMISE
DYEAR=1994
DGENRE=JPop
TTITLE0=PROMISE
TTITLE1=JUST FEEL IT
TTITLE2=PROMISE(オリジナルカラオケ)
EXTD=YEAR: 1994
EXTT0=
EXTT1=
EXTT2=
PLAYORDER=
